<mxfile host="app.diagrams.net" agent="Mozilla/5.0 (X11; Linux x86_64) AppleWebKit/537.36 (KHTML, like Gecko) Chrome/131.0.0.0 Safari/537.36" version="26.1.0">
  <diagram name="Page-1" id="UDpjH4-oZqBjU2duBiaz">
    <mxGraphModel dx="1370" dy="879" grid="1" gridSize="10" guides="1" tooltips="1" connect="1" arrows="1" fold="1" page="1" pageScale="1" pageWidth="827" pageHeight="1169" math="0" shadow="0">
      <root>
        <mxCell id="0" />
        <mxCell id="1" parent="0" />
        <mxCell id="1VtbkpPVWlEsOwGqBAlO-1" value="&lt;font style=&quot;font-size: 16px;&quot;&gt;Low-Level Computer (Linux)&lt;/font&gt;" style="rounded=1;whiteSpace=wrap;html=1;verticalAlign=top;spacingTop=-30;arcSize=8;strokeWidth=2;" parent="1" vertex="1">
          <mxGeometry x="300" y="390" width="470" height="590" as="geometry" />
        </mxCell>
        <mxCell id="1VtbkpPVWlEsOwGqBAlO-2" value="ROS2" style="rounded=1;whiteSpace=wrap;html=1;verticalAlign=top;spacingTop=-30;fontSize=16;dashed=1;strokeWidth=2;dashPattern=8 8;" parent="1" vertex="1">
          <mxGeometry x="446" y="440" width="304" height="520" as="geometry" />
        </mxCell>
        <mxCell id="1VtbkpPVWlEsOwGqBAlO-16" value="" style="edgeStyle=orthogonalEdgeStyle;rounded=0;orthogonalLoop=1;jettySize=auto;html=1;strokeWidth=2;" parent="1" source="1VtbkpPVWlEsOwGqBAlO-3" target="1VtbkpPVWlEsOwGqBAlO-5" edge="1">
          <mxGeometry relative="1" as="geometry" />
        </mxCell>
        <mxCell id="1VtbkpPVWlEsOwGqBAlO-3" value="&lt;font style=&quot;font-size: 16px;&quot;&gt;MCU&lt;br&gt;(MicroROS)&lt;/font&gt;" style="rounded=1;whiteSpace=wrap;html=1;strokeWidth=2;" parent="1" vertex="1">
          <mxGeometry x="30" y="507" width="110" height="60" as="geometry" />
        </mxCell>
        <mxCell id="1VtbkpPVWlEsOwGqBAlO-4" value="&lt;font style=&quot;font-size: 16px;&quot;&gt;Motor Controllers&lt;br&gt;(SevCon)&lt;/font&gt;" style="rounded=1;whiteSpace=wrap;html=1;strokeWidth=2;" parent="1" vertex="1">
          <mxGeometry x="29.5" y="740" width="110" height="80" as="geometry" />
        </mxCell>
        <mxCell id="1VtbkpPVWlEsOwGqBAlO-5" value="&lt;span style=&quot;font-size: 16px;&quot;&gt;&amp;nbsp;LEDs / E-Stops&lt;/span&gt;" style="rounded=1;whiteSpace=wrap;html=1;strokeWidth=2;" parent="1" vertex="1">
          <mxGeometry x="10" y="377" width="150" height="60" as="geometry" />
        </mxCell>
        <mxCell id="1VtbkpPVWlEsOwGqBAlO-7" style="edgeStyle=orthogonalEdgeStyle;rounded=0;orthogonalLoop=1;jettySize=auto;html=1;exitX=0;exitY=0.5;exitDx=0;exitDy=0;entryX=1;entryY=0.5;entryDx=0;entryDy=0;startArrow=classic;startFill=1;fillColor=#fff2cc;strokeColor=light-dark(#000000, #6d5100);strokeWidth=2;" parent="1" source="1VtbkpPVWlEsOwGqBAlO-6" target="1VtbkpPVWlEsOwGqBAlO-3" edge="1">
          <mxGeometry relative="1" as="geometry" />
        </mxCell>
        <mxCell id="1VtbkpPVWlEsOwGqBAlO-6" value="Ethernet" style="rounded=0;whiteSpace=wrap;html=1;strokeWidth=2;horizontal=0;" parent="1" vertex="1">
          <mxGeometry x="270" y="497" width="30" height="80" as="geometry" />
        </mxCell>
        <mxCell id="1VtbkpPVWlEsOwGqBAlO-8" value="192.168.131.2" style="text;html=1;align=center;verticalAlign=middle;whiteSpace=wrap;rounded=0;" parent="1" vertex="1">
          <mxGeometry x="42" y="565" width="85" height="30" as="geometry" />
        </mxCell>
        <mxCell id="1VtbkpPVWlEsOwGqBAlO-10" value="PCI-CAN" style="rounded=0;whiteSpace=wrap;html=1;strokeWidth=2;horizontal=0;" parent="1" vertex="1">
          <mxGeometry x="270" y="740" width="30" height="80" as="geometry" />
        </mxCell>
        <mxCell id="1VtbkpPVWlEsOwGqBAlO-11" style="edgeStyle=orthogonalEdgeStyle;rounded=0;orthogonalLoop=1;jettySize=auto;html=1;exitX=0;exitY=0.5;exitDx=0;exitDy=0;entryX=1;entryY=0.5;entryDx=0;entryDy=0;startArrow=classic;startFill=1;fillColor=#fff2cc;strokeColor=light-dark(#000000, #6d5100);strokeWidth=2;" parent="1" source="1VtbkpPVWlEsOwGqBAlO-10" target="1VtbkpPVWlEsOwGqBAlO-4" edge="1">
          <mxGeometry relative="1" as="geometry">
            <mxPoint x="280" y="630" as="sourcePoint" />
            <mxPoint x="140" y="630" as="targetPoint" />
          </mxGeometry>
        </mxCell>
        <mxCell id="1VtbkpPVWlEsOwGqBAlO-14" value="can0" style="text;html=1;align=center;verticalAlign=middle;whiteSpace=wrap;rounded=0;" parent="1" vertex="1">
          <mxGeometry x="158" y="775" width="85" height="30" as="geometry" />
        </mxCell>
        <mxCell id="1VtbkpPVWlEsOwGqBAlO-15" value="br0" style="text;html=1;align=center;verticalAlign=middle;whiteSpace=wrap;rounded=0;" parent="1" vertex="1">
          <mxGeometry x="159" y="535" width="85" height="30" as="geometry" />
        </mxCell>
        <mxCell id="1VtbkpPVWlEsOwGqBAlO-17" value="&lt;span style=&quot;font-size: 16px;&quot;&gt;Batteries&lt;br&gt;(Sysnergie)&lt;/span&gt;" style="rounded=1;whiteSpace=wrap;html=1;strokeWidth=2;" parent="1" vertex="1">
          <mxGeometry x="30" y="870" width="110" height="60" as="geometry" />
        </mxCell>
        <mxCell id="1VtbkpPVWlEsOwGqBAlO-18" value="USB-CAN" style="rounded=0;whiteSpace=wrap;html=1;strokeWidth=2;horizontal=0;spacingTop=0;spacingLeft=0;" parent="1" vertex="1">
          <mxGeometry x="270" y="860" width="30" height="80" as="geometry" />
        </mxCell>
        <mxCell id="1VtbkpPVWlEsOwGqBAlO-19" style="edgeStyle=orthogonalEdgeStyle;rounded=0;orthogonalLoop=1;jettySize=auto;html=1;exitX=0;exitY=0.5;exitDx=0;exitDy=0;entryX=1;entryY=0.5;entryDx=0;entryDy=0;startArrow=classic;startFill=1;fillColor=#fff2cc;strokeColor=light-dark(#000000, #6d5100);strokeWidth=2;" parent="1" edge="1">
          <mxGeometry relative="1" as="geometry">
            <mxPoint x="270" y="901" as="sourcePoint" />
            <mxPoint x="140" y="901" as="targetPoint" />
          </mxGeometry>
        </mxCell>
        <mxCell id="1VtbkpPVWlEsOwGqBAlO-20" value="can32" style="text;html=1;align=center;verticalAlign=middle;whiteSpace=wrap;rounded=0;" parent="1" vertex="1">
          <mxGeometry x="161" y="897" width="85" height="30" as="geometry" />
        </mxCell>
        <mxCell id="1VtbkpPVWlEsOwGqBAlO-22" value="PCAN Drivers" style="shape=hexagon;perimeter=hexagonPerimeter2;whiteSpace=wrap;html=1;fixedSize=1;strokeWidth=2;" parent="1" vertex="1">
          <mxGeometry x="309" y="880" width="130" height="40" as="geometry" />
        </mxCell>
        <mxCell id="1VtbkpPVWlEsOwGqBAlO-23" value="PCAN Drivers" style="shape=hexagon;perimeter=hexagonPerimeter2;whiteSpace=wrap;html=1;fixedSize=1;strokeWidth=2;" parent="1" vertex="1">
          <mxGeometry x="309" y="760" width="130" height="40" as="geometry" />
        </mxCell>
        <mxCell id="1VtbkpPVWlEsOwGqBAlO-24" value="ETH Drivers" style="shape=hexagon;perimeter=hexagonPerimeter2;whiteSpace=wrap;html=1;fixedSize=1;strokeWidth=2;" parent="1" vertex="1">
          <mxGeometry x="309" y="517" width="130" height="40" as="geometry" />
        </mxCell>
        <mxCell id="1VtbkpPVWlEsOwGqBAlO-25" value="micro-ros-agent" style="ellipse;whiteSpace=wrap;html=1;strokeWidth=2;fontSize=14;" parent="1" vertex="1">
          <mxGeometry x="458" y="505" width="153" height="60" as="geometry" />
        </mxCell>
        <mxCell id="1VtbkpPVWlEsOwGqBAlO-26" value="RMW (Zenoh)" style="rounded=1;whiteSpace=wrap;html=1;fontSize=16;horizontal=0;strokeWidth=2;" parent="1" vertex="1">
          <mxGeometry x="678" y="470" width="50" height="460" as="geometry" />
        </mxCell>
        <mxCell id="1VtbkpPVWlEsOwGqBAlO-29" value="sevcon_driver" style="ellipse;whiteSpace=wrap;html=1;strokeWidth=2;fontSize=14;" parent="1" vertex="1">
          <mxGeometry x="458" y="750" width="154" height="60" as="geometry" />
        </mxCell>
        <mxCell id="1VtbkpPVWlEsOwGqBAlO-30" value="" style="rounded=0;orthogonalLoop=1;jettySize=auto;html=1;entryX=0;entryY=0.114;entryDx=0;entryDy=0;entryPerimeter=0;strokeWidth=2;startArrow=classic;startFill=1;exitX=1;exitY=0.5;exitDx=0;exitDy=0;" parent="1" source="1VtbkpPVWlEsOwGqBAlO-29" edge="1">
          <mxGeometry relative="1" as="geometry">
            <mxPoint x="615" y="780" as="sourcePoint" />
            <mxPoint x="678" y="779.8" as="targetPoint" />
          </mxGeometry>
        </mxCell>
        <mxCell id="1VtbkpPVWlEsOwGqBAlO-31" value="sysnergie_logger" style="ellipse;whiteSpace=wrap;html=1;strokeWidth=2;fontSize=14;" parent="1" vertex="1">
          <mxGeometry x="458" y="870" width="154" height="60" as="geometry" />
        </mxCell>
        <mxCell id="1VtbkpPVWlEsOwGqBAlO-32" value="" style="rounded=0;orthogonalLoop=1;jettySize=auto;html=1;entryX=0;entryY=0.114;entryDx=0;entryDy=0;entryPerimeter=0;strokeWidth=2;startArrow=none;startFill=0;exitX=1;exitY=0.5;exitDx=0;exitDy=0;" parent="1" edge="1">
          <mxGeometry relative="1" as="geometry">
            <mxPoint x="612" y="900" as="sourcePoint" />
            <mxPoint x="678" y="899.8" as="targetPoint" />
          </mxGeometry>
        </mxCell>
        <mxCell id="1VtbkpPVWlEsOwGqBAlO-34" value="&lt;span style=&quot;font-size: 16px;&quot;&gt;FORT &lt;br&gt;Remote&lt;/span&gt;" style="rounded=1;whiteSpace=wrap;html=1;strokeWidth=2;" parent="1" vertex="1">
          <mxGeometry x="29" y="629" width="111" height="60" as="geometry" />
        </mxCell>
        <mxCell id="1VtbkpPVWlEsOwGqBAlO-35" style="edgeStyle=orthogonalEdgeStyle;rounded=0;orthogonalLoop=1;jettySize=auto;html=1;exitX=0;exitY=0.5;exitDx=0;exitDy=0;startArrow=classic;startFill=1;fillColor=#fff2cc;strokeColor=light-dark(#000000, #6d5100);strokeWidth=2;" parent="1" source="1VtbkpPVWlEsOwGqBAlO-40" edge="1">
          <mxGeometry relative="1" as="geometry">
            <mxPoint x="263.5" y="659" as="sourcePoint" />
            <mxPoint x="140" y="659" as="targetPoint" />
          </mxGeometry>
        </mxCell>
        <mxCell id="1VtbkpPVWlEsOwGqBAlO-36" value="ttyACM0" style="text;html=1;align=center;verticalAlign=middle;whiteSpace=wrap;rounded=0;" parent="1" vertex="1">
          <mxGeometry x="159" y="654" width="85" height="30" as="geometry" />
        </mxCell>
        <mxCell id="1VtbkpPVWlEsOwGqBAlO-37" value="hri_safety_sense" style="ellipse;whiteSpace=wrap;html=1;strokeWidth=2;fontSize=14;" parent="1" vertex="1">
          <mxGeometry x="457" y="629" width="154" height="60" as="geometry" />
        </mxCell>
        <mxCell id="1VtbkpPVWlEsOwGqBAlO-38" value="" style="rounded=0;orthogonalLoop=1;jettySize=auto;html=1;entryX=0;entryY=0.114;entryDx=0;entryDy=0;entryPerimeter=0;strokeWidth=2;startArrow=none;startFill=0;exitX=1;exitY=0.5;exitDx=0;exitDy=0;" parent="1" edge="1">
          <mxGeometry relative="1" as="geometry">
            <mxPoint x="612" y="659" as="sourcePoint" />
            <mxPoint x="678" y="658.8" as="targetPoint" />
          </mxGeometry>
        </mxCell>
        <mxCell id="1VtbkpPVWlEsOwGqBAlO-40" value="USB" style="rounded=0;whiteSpace=wrap;html=1;strokeWidth=2;horizontal=0;spacingTop=0;spacingLeft=0;" parent="1" vertex="1">
          <mxGeometry x="270" y="629" width="30" height="60" as="geometry" />
        </mxCell>
        <mxCell id="1VtbkpPVWlEsOwGqBAlO-42" value="" style="rounded=0;orthogonalLoop=1;jettySize=auto;html=1;strokeWidth=2;startArrow=classic;startFill=1;exitX=1;exitY=0.5;exitDx=0;exitDy=0;entryX=-0.029;entryY=0.083;entryDx=0;entryDy=0;entryPerimeter=0;" parent="1" source="1VtbkpPVWlEsOwGqBAlO-25" edge="1">
          <mxGeometry relative="1" as="geometry">
            <mxPoint x="611" y="535" as="sourcePoint" />
            <mxPoint x="676.5499999999997" y="535.1799999999998" as="targetPoint" />
          </mxGeometry>
        </mxCell>
        <mxCell id="1VtbkpPVWlEsOwGqBAlO-43" value="USB Drivers" style="shape=hexagon;perimeter=hexagonPerimeter2;whiteSpace=wrap;html=1;fixedSize=1;strokeWidth=2;" parent="1" vertex="1">
          <mxGeometry x="309" y="639" width="130" height="40" as="geometry" />
        </mxCell>
      </root>
    </mxGraphModel>
  </diagram>
</mxfile>
